# xmcd CD database file generated by Grip 2.95
# 
# Track frame offsets:
#       165
#       12882
#       29967
#       33048
#       47142
#       56850
#       63648
#       82630
#       91848
# 
# Disc length: 1440 seconds
# 
# Revision: 3
# Processed by: cddbd v1.4b41PL3 Copyright (c) Steve Scherf et al.
# Submitted via: Grip 2.95
# 
DISCID=6c059e09
DTITLE=Jason Jordan - Genuine Vinyl
DYEAR=1900
DGENRE=
TTITLE0=Picky Picky Picky
TTITLE1=Doghouse
TTITLE2=Two Days
TTITLE3=Almost Amos
TTITLE4=Genuine Vinyl
TTITLE5=Poetic
TTITLE6=Soul Miner
TTITLE7=Steel Guitar Rag
TTITLE8=Rollin' In My Sweet Baby's Arms
EXTD=
EXTT0=
EXTT1=
EXTT2=
EXTT3=
EXTT4=
EXTT5=
EXTT6=
EXTT7=
EXTT8=
PLAYORDER=
